<svg width="486.19999999999993" height="97.28655631390714" xmlns="http://www.w3.org/2000/svg" viewBox="0 0 357.22136291999465 71.47847848672711" class="css-1j8o68f"><defs id="SvgjsDefs12488"></defs><g id="SvgjsG12489" featurekey="0LeO0L-0" transform="matrix(5.055722920448762,0,0,5.055722920448762,14.944277079551238,-29.711815091043018)" fill="#ffe3b0"><path d="M5.2 5.880000000000001 c4.56 0.08 7.26 3.02 7.26 7.12 s-2.7 6.94 -6.54 7 c-1.42 0.02 -2.02 0.02 -4.92 0 l0 -14 c2.12 -0.06 2.64 -0.14 4.2 -0.12 z M5.8 19.66 c3.9 0.04 5.92 -2.84 5.58 -6.66 c-0.34 -3.84 -2.86 -6.74 -6.4 -6.74 c-1.26 0 -2.34 0.12 -2.82 0.16 l0 13.02 c0.36 0.06 1.82 0.2 3.64 0.22 z"></path></g><g id="SvgjsG12490" featurekey="nameLeftFeature-0" transform="matrix(1.6696998381411636,0,0,1.6696998381411636,88.79781407833055,15.451137019799225)" fill="#f5c8bd"><path d="M17.28 12.559999999999999 c0.37334 0 0.56 -0.18666 0.56 -0.56 s-0.18666 -0.56 -0.56 -0.56 l-15.44 0 l0 -4.88 l15.44 0 c0.37334 0 0.56 -0.18666 0.56 -0.56 s-0.18666 -0.56 -0.56 -0.56 l-16.56 0 l0 13.12 l16.56 0 c0.37334 0 0.56 -0.18666 0.56 -0.56 s-0.18666 -0.56 -0.56 -0.56 l-15.44 0 l0 -4.88 l15.44 0 z M36.120000000000005 17.56 l-15.44 0 l0 -11.44 c0 -0.37334 -0.18666 -0.56 -0.56 -0.56 s-0.56 0.18666 -0.56 0.56 l0 12.54 l16.56 0 c0.37334 0 0.56 -0.18 0.56 -0.54 c0 -0.37334 -0.18666 -0.56 -0.56 -0.56 z M38.2 6.119999999999999 l0 12 c0 0.36 0.18 0.54 0.54 0.54 c0.37334 0 0.56 -0.18 0.56 -0.54 l0 0 l0 -12 c0 -0.37334 -0.18666 -0.56 -0.56 -0.56 c-0.36 0 -0.54 0.18666 -0.54 0.56 z M57.22 8.14 c-0.81334 -0.94666 -1.8733 -1.6867 -3.18 -2.22 s-2.7 -0.8 -4.18 -0.8 c-2.44 0 -4.52 0.65334 -6.24 1.96 c-1.7733 1.3467 -2.66 2.9866 -2.66 4.92 s0.88666 3.5734 2.66 4.92 c1.72 1.3067 3.8 1.96 6.24 1.96 c1.48 0 2.8734 -0.26666 4.18 -0.8 s2.3666 -1.2733 3.18 -2.22 l0 0 c0.24 -0.29334 0.22666 -0.55334 -0.04 -0.78 c-0.10666 -0.09334 -0.23332 -0.14 -0.37998 -0.14 c-0.16 0 -0.29334 0.06 -0.4 0.18 l0 0 c-0.73334 0.82666 -1.6767 1.4767 -2.83 1.95 s-2.39 0.71 -3.71 0.71 c-2.1466 0 -3.98 -0.56666 -5.5 -1.7 s-2.28 -2.4934 -2.28 -4.08 s0.76 -2.9466 2.28 -4.08 s3.3534 -1.7 5.5 -1.7 c1.32 0 2.5566 0.23666 3.71 0.71 s2.0966 1.1233 2.83 1.95 l0 0 c0.10666 0.12 0.24 0.18 0.4 0.18 c0.14666 0 0.27332 -0.04666 0.37998 -0.14 c0.26666 -0.22666 0.28 -0.48666 0.04 -0.78 z M59.260000000000005 6.119999999999999 l0 12 c0 0.36 0.18 0.54 0.54 0.54 c0.37334 0 0.56 -0.18 0.56 -0.54 l0 0 l0 -12 c0 -0.37334 -0.18666 -0.56 -0.56 -0.56 c-0.36 0 -0.54 0.18666 -0.54 0.56 z M62 13.879999999999999 c0 1.8667 0.96668 3.24 2.9 4.12 c1.4667 0.66666 3.3466 1 5.64 1 c2.3066 0 4.1934 -0.33334 5.66 -1 c1.9333 -0.88 2.9 -2.2534 2.9 -4.12 l0 -7.76 c0 -0.37334 -0.18666 -0.56 -0.56 -0.56 c-0.36 0 -0.54 0.18666 -0.54 0.56 l0 0 l0 7.76 c0 1.5733 -0.96 2.6934 -2.88 3.36 c-1.2533 0.42666 -2.78 0.64 -4.58 0.64 s-3.32 -0.21334 -4.56 -0.64 c-1.92 -0.66666 -2.88 -1.7867 -2.88 -3.36 l0 0 c0 -0.36 -0.18666 -0.54 -0.56 -0.54 c-0.36 0 -0.54 0.18 -0.54 0.54 z M101.7 17.64 l-10.76 -12.5 l-10.42 12.5 c-0.08 0.09334 -0.12 0.20668 -0.12 0.34002 c0 0.38666 0.19334 0.58 0.58 0.58 c0.16 0 0.29334 -0.06666 0.4 -0.2 l0 0 l3.16 -3.8 l13.04 0 l3.28 3.8 c0.12 0.13334 0.26666 0.2 0.44 0.2 c0.36 0 0.54 -0.18 0.54 -0.54 c0 -0.14666 -0.04666 -0.27332 -0.14 -0.37998 z M85.48 13.440000000000001 l5.48 -6.58 l5.68 6.58 l-11.16 0 z"></path></g><g id="SvgjsG12491" featurekey="nameRightFeature-0" transform="matrix(1.6116434091140792,0,0,1.6116434091140792,257.71849613620145,14.588006087313826)" fill="#f5c8bd"><path d="M7 20 l0 -14 c2.06 -0.1 3.3 -0.16 4.66 -0.12 c2.6 0.08 4.44 1.62 4.44 3.72 c0 2.14 -1.6 3.66 -4.28 3.66 c-1.16 0 -2.3 -0.06 -3.66 -0.18 l0 6.92 l-1.16 0 z M8.16 12.6 c0.92 0.16 2.64 0.3 3.34 0.3 c2.38 0 3.68 -1.36 3.5 -3.3 c-0.16 -1.96 -1.7 -3.34 -3.68 -3.34 c-1.72 0 -2.88 0.12 -3.16 0.16 l0 6.18 z M26.740000000000002 20 l-1.3 -3.58 l-6.88 0 l-1.24 3.58 l-0.42 0 l4.96 -14 l1.04 0 l5.02 14 l-1.18 0 z M18.700000000000003 16.06 l6.62 0 l-3.38 -9.34 z M33.88 12.120000000000001 c3.32 0.46 4.94 2.12 4.94 4.2 c0 2.44 -2.14 3.9 -5.18 3.9 c-2.4 0 -4.14 -0.82 -4.92 -2.1 l0.9 -0.62 c0.6 1.36 2.16 2.34 4.32 2.34 c2.4 0 3.98 -1.34 3.8 -3.52 c-0.16 -1.8 -1.68 -2.96 -4.3 -3.3 c-3.1 -0.4 -4.46 -1.6 -4.46 -3.66 c0 -2 1.9 -3.52 4.78 -3.52 c2.06 0 3.72 0.94 4.32 2.4 l-0.94 0.48 c-0.52 -1.38 -1.88 -2.5 -3.66 -2.5 c-2.26 0 -3.62 1.4 -3.44 3.14 c0.16 1.74 1.48 2.42 3.84 2.76 z M50.32 6 l0 0.36 l-4.76 0 l0 13.64 l-1.16 0 l0 -13.64 l-4.78 0 l0 -0.36 l10.7 0 z M60.56 20 l-1.3 -3.58 l-6.88 0 l-1.24 3.58 l-0.42 0 l4.96 -14 l1.04 0 l5.02 14 l-1.18 0 z M52.52 16.06 l6.62 0 l-3.38 -9.34 z"></path></g></svg>